<svg width="512" height="512" viewBox="0 0 512 512" fill="none" xmlns="http://www.w3.org/2000/svg">
<path d="M0 0H512V512H0V0Z" fill="#CF956B"/>
<path d="M345.626 112C403.27 112 450 158.741 450 216.399V291.601C450 349.259 403.27 396 345.626 396H272.21V328.76C272.21 271.102 225.48 224.361 167.836 224.361H67V216.399C67 158.741 113.73 112 171.374 112H345.626Z" fill="white"/>
<mask id="mask0_74_215" style="mask-type:alpha" maskUnits="userSpaceOnUse" x="67" y="112" width="383" height="284">
<path d="M67 216.441C67 158.797 113.73 112.067 171.374 112.067H345.626C403.27 112.067 450 158.797 450 216.441V291.626C450 349.27 403.27 396 345.626 396H171.374C113.73 396 67 349.27 67 291.626V216.441Z" fill="white"/>
</mask>
<g mask="url(#mask0_74_215)">
<path d="M-124.058 330.545C-124.058 278.274 -81.684 235.901 -29.4134 235.901H164.298C216.569 235.901 258.942 278.274 258.942 330.545V425.189C258.942 477.46 216.569 519.834 164.298 519.834H-29.4134C-81.684 519.834 -124.058 477.46 -124.058 425.189V330.545Z" fill="#CF956B"/>
<path d="M164.298 484.453V519.834H-29.4134V484.453H164.298ZM223.561 425.189V330.545C223.561 297.815 197.028 271.282 164.298 271.282H-29.4134C-62.1436 271.282 -88.6767 297.815 -88.6767 330.545V425.189C-88.6767 457.92 -62.1436 484.453 -29.4134 484.453V519.834C-81.2757 519.834 -123.395 478.119 -124.05 426.413L-124.058 425.189V330.545C-124.058 278.274 -81.684 235.901 -29.4134 235.901H164.298L165.521 235.908C217.228 236.563 258.942 278.683 258.942 330.545V425.189C258.942 477.052 217.228 519.171 165.521 519.826L164.298 519.834V484.453C197.028 484.453 223.561 457.92 223.561 425.189Z" fill="white"/>
</g>
<mask id="mask1_74_215" style="mask-type:alpha" maskUnits="userSpaceOnUse" x="67" y="112" width="383" height="284">
<path d="M67 216.441C67 158.797 113.73 112.067 171.374 112.067H345.626C403.27 112.067 450 158.797 450 216.441V291.626C450 349.27 403.27 396 345.626 396H171.374C113.73 396 67 349.27 67 291.626V216.441Z" fill="white"/>
</mask>
<g mask="url(#mask1_74_215)">
<path d="M-170.053 378.309C-170.053 326.039 -127.679 283.665 -75.4088 283.665H118.303C170.573 283.665 212.947 326.039 212.947 378.31V472.954C212.947 525.224 170.573 567.598 118.303 567.598H-75.4088C-127.679 567.598 -170.053 525.224 -170.053 472.954V378.309Z" fill="#CF956B"/>
<path d="M118.303 532.217V567.598H-75.4088V532.217H118.303ZM177.566 472.954V378.31C177.566 345.579 151.033 319.046 118.303 319.046H-75.4088C-108.139 319.046 -134.672 345.579 -134.672 378.31V472.954C-134.672 505.684 -108.139 532.217 -75.4088 532.217V567.598C-127.271 567.598 -169.39 525.884 -170.045 474.177L-170.053 472.954V378.31C-170.053 326.039 -127.679 283.665 -75.4088 283.665H118.303L119.526 283.673C171.233 284.328 212.947 326.447 212.947 378.31V472.954C212.947 524.816 171.233 566.936 119.526 567.59L118.303 567.598V532.217C151.033 532.217 177.566 505.684 177.566 472.954Z" fill="white"/>
</g>
<mask id="mask2_74_215" style="mask-type:alpha" maskUnits="userSpaceOnUse" x="67" y="112" width="383" height="284">
<path d="M67 216.441C67 158.797 113.73 112.067 171.374 112.067H345.626C403.27 112.067 450 158.797 450 216.441V291.626C450 349.27 403.27 396 345.626 396H171.374C113.73 396 67 349.27 67 291.626V216.441Z" fill="white"/>
</mask>
<g mask="url(#mask2_74_215)">
<path d="M-215.164 425.189C-215.164 372.919 -172.79 330.545 -120.52 330.545H73.1917C125.462 330.545 167.836 372.919 167.836 425.189V519.834C167.836 572.104 125.462 614.478 73.1917 614.478H-120.52C-172.79 614.478 -215.164 572.104 -215.164 519.834V425.189Z" fill="#CF956B"/>
<path d="M73.1917 579.097V614.478H-120.52V579.097H73.1917ZM132.455 519.834V425.189C132.455 392.459 105.922 365.926 73.1917 365.926H-120.52C-153.25 365.926 -179.783 392.459 -179.783 425.189V519.834C-179.783 552.564 -153.25 579.097 -120.52 579.097V614.478C-172.382 614.478 -214.501 572.764 -215.156 521.057L-215.164 519.834V425.189C-215.164 372.919 -172.79 330.545 -120.52 330.545H73.1917L74.4148 330.553C126.122 331.208 167.836 373.327 167.836 425.189V519.834C167.836 571.696 126.122 613.815 74.4148 614.47L73.1917 614.478V579.097C105.922 579.097 132.455 552.564 132.455 519.834Z" fill="white"/>
</g>
<path d="M299.288 242.094C310.317 247.629 310.317 263.371 299.288 268.906L232.978 302.186C223.004 307.192 211.25 299.94 211.25 288.779L211.25 222.221C211.25 211.06 223.004 203.808 232.978 208.814L299.288 242.094Z" fill="#CF956B"/>
</svg>